<svg width="25" height="25" viewBox="0 0 25 25" fill="none" xmlns="http://www.w3.org/2000/svg">
<path d="M17.8036 1.98852C13.6933 4.36163 6.63187 9.35512 3.12965 12.2285C2.60117 12.6621 2.21724 13.2675 2.31087 13.9447C2.37349 14.3976 2.53415 14.9698 2.90015 15.6037C3.26615 16.2376 3.68135 16.6629 4.04226 16.9436C4.58187 17.3632 5.29817 17.3334 5.9379 17.0926C10.1774 15.4962 18.0326 11.8776 22.143 9.50453C22.143 9.50453 19.4874 10.048 17.7463 7.03228C16.0052 4.01658 17.8036 1.98852 17.8036 1.98852Z" fill="#CDFF71" stroke="#0C65EC" stroke-width="2.57143" stroke-linecap="round" stroke-linejoin="round"/>
<path d="M17.7459 7.03217C16.0047 4.01648 17.8032 1.98841 17.8032 1.98841C17.8032 1.98841 20.4587 1.44497 22.1998 4.46066C23.941 7.47636 22.1425 9.50442 22.1425 9.50442C22.1425 9.50442 19.487 10.0479 17.7459 7.03217Z" fill="white" stroke="#0C65EC" stroke-width="2.57143" stroke-linecap="round" stroke-linejoin="round"/>
<path d="M13.4073 13.913L9.12158 23.2643" stroke="#0C65EC" stroke-width="2.57143" stroke-linecap="round" stroke-linejoin="round"/>
<path d="M13.4072 13.913L17.6929 23.2643" stroke="#0C65EC" stroke-width="2.57143" stroke-linecap="round" stroke-linejoin="round"/>
</svg>
